<svg class="header" width="43" height="9" version="1.1" viewBox="0 0 43 9" xmlns="http://www.w3.org/2000/svg">
	<title>Logo with title ".Blog"</title>
	<path class="logo" d="m2 1v1h-1v3h1v3h1v-1h1v1h1v-3h1v-3h-1v-1h-1v1h-1v-1zm0 2h1v1h-1zm2 0h1v1h-1z"/>
	<path class="title" d="m13 1v7h4v-1h-3v-2h3v-1h-3v-2h3v-1zm4 1v2h1v-2zm0 3v2h1v-2zm2-2v5h5v-1h-4v-4zm7 0v1h3v-1zm3 1v3h1v-3zm0 3h-3v1h3zm-3 0v-3h-1v3zm6-4v1h4v-1zm0 1h-1v3h1zm0 3v1h3v-1zm3 0h1v-2h-3v1h2zm-26 0v1h1v-1z"/>
	<path class="cursor" d="m37 8h5v1h-5z"/>
</svg>
